<?xml version="1.0" encoding="UTF-8"?><svg id="Layer_1" xmlns="http://www.w3.org/2000/svg" xmlns:xlink="http://www.w3.org/1999/xlink" viewBox="0 0 670 500"><defs><style>.cls-1{fill:url(#linear-gradient);}.cls-2{fill:#ffffff;}</style><linearGradient id="linear-gradient" x1="445.13" y1="301.58" x2="426.05" y2="211.18" gradientTransform="matrix(1, 0, 0, 1, 0, 0)" gradientUnits="userSpaceOnUse"><stop offset="0" stop-color="#ed1489"/><stop offset="1" stop-color="#f89341"/></linearGradient></defs><g><g><path class="cls-2" d="M338.99,231.55h17.16c7.82,0,14.01,2.87,14.01,10.02,0,4.73-3.26,7.54-7.48,8.67,5.01,.96,8.67,4.11,8.67,9.29,0,8.1-6.98,11.42-15.93,11.42h-16.43v-39.39Zm16.32,15.64c4.11,0,5.91-1.58,5.91-4.39,0-2.59-1.8-4.05-5.91-4.05h-7.82v8.44h7.82Zm.39,16.54c4.56,0,6.64-1.69,6.64-4.9,0-3.38-2.08-4.78-6.64-4.78h-8.22v9.68h8.22Z"/><path class="cls-2" d="M377.2,231.55h8.78v31.96h19.08v7.43h-27.86v-39.39Z"/></g><g><path class="cls-2" d="M94.93,231.55h13.51l8.61,26.56c.45,1.63,.79,2.93,1.01,4.22,.23-1.29,.51-2.59,.96-4.22l8.22-26.56h13.45v39.39h-8.33v-25.32c0-1.97,.06-3.88,.17-5.68l-9.34,31.01h-10.24l-9.96-30.95c.11,1.8,.22,3.66,.22,5.68v25.27h-8.27v-39.39Z"/><path class="cls-2" d="M148.67,231.55h28.14v7.43h-19.36v8.16h18.51v7.32h-18.51v9.06h20.26v7.43h-29.04v-39.39Z"/><path class="cls-2" d="M183.95,231.55h8.78v31.96h19.08v7.43h-27.86v-39.39Z"/><path class="cls-2" d="M219.86,238.98h-12.89v-7.43h34.44v7.43h-12.77v31.96h-8.78v-31.96Z"/><path class="cls-2" d="M245.91,231.55h28.14v7.43h-19.36v8.16h18.51v7.32h-18.51v9.06h20.26v7.43h-29.04v-39.39Z"/><path class="cls-2" d="M281.2,231.55h14.52c13.51,0,21.22,6.75,21.22,19.75,0,11.76-7.2,19.64-21.16,19.64h-14.57v-39.39Zm13.96,31.96c7.54,0,12.72-3.6,12.72-12.21,0-7.82-4.16-12.32-12.66-12.32h-5.23v24.54h5.18Z"/></g><g><path class="cls-2" d="M463.59,249.54c0-12.83,8.67-20.48,19.98-20.48,9.9,0,17.11,5.57,18.01,15.36h-9.06c-.62-4.78-3.66-8.05-9-8.05-6.25,0-10.8,4.78-10.8,13.17s4.39,13.62,10.64,13.62c5.29,0,8.89-3.49,9.57-8.61h8.83c-.84,9.4-7.6,15.93-18.74,15.93-11.82,0-19.41-7.65-19.41-20.93Z"/><path class="cls-2" d="M507.15,230.07h8.61v15.81c.68-1.07,1.46-2.03,2.59-3.32l11.48-12.49h11.14l-15.7,16.38,17.67,23.02h-11.37l-12.04-17-3.77,3.94v13.06h-8.61v-39.39Z"/><path class="cls-2" d="M541.25,255.85h9.12c.34,4.84,4.16,7.37,8.95,7.37,3.83,0,6.92-1.46,6.92-4.73,0-2.59-1.86-3.94-5.57-4.67l-6.7-1.24c-6.36-1.18-11.42-4.73-11.42-11.31,0-7.32,6.7-12.21,15.81-12.21,10.24,0,15.81,5.35,16.32,13.17h-9.12c-.23-3.32-2.48-6.02-7.6-6.02-3.77,0-6.64,1.58-6.64,4.39,0,2.59,2.25,3.55,5.91,4.22l6.42,1.18c6.25,1.13,11.42,4.5,11.42,11.48,0,7.43-5.51,13-16.09,13s-17.22-5.63-17.73-14.63Z"/></g></g><path class="cls-1" d="M453.85,235.56l-11.95-6.9c1.7,1.97,3.39,4.43,4.44,7.24l5.49,3.17c.34,.2,.74,.89,.74,1.28v19.43c0,.39-.4,1.09-.74,1.28l-6.93,4c6.07-10.54,1.45-19.23,1.45-19.23-.61,4.82-4.81,6.55-4.81,6.55,9.24-15.16-8.67-27.14-8.67-27.14,6.94,11.85-6.25,24.23-6.25,24.23,1.63-4.42-2.34-6.71-2.34-6.71-7.21,8.44-6.99,15.17-4.72,19.95l-2.87-1.66c-.34-.2-.74-.89-.74-1.28v-19.43c0-.39,.4-1.09,.74-1.28l14.98-8.65c-.2-1.31-.59-2.64-1.22-3.97l-15.78,9.11c-1.6,.93-2.77,2.94-2.77,4.79v19.43c0,1.85,1.16,3.87,2.77,4.79,0,0,17.54,10.06,17.94,10.17-7.78-6.6-6.68-19.08,3.01-26.01-9.59,11.59,2.16,24.83,7.06,22.3l11.19-6.46c1.6-.93,2.77-2.94,2.77-4.79v-19.43c0-1.85-1.16-3.87-2.77-4.79Zm-14.23,15.15c2.6-5.44,1.78-11.62-.91-16.92,4.28,4.87,5.12,11.79,.91,16.92Z"/></svg>